# xmcd CD database file
#
# Track frame offsets:
#	150
#	13726
#	27764
#	43736
#	56630
#	74655
#	91387
#	103842
#	120780
#	137551
#	152312
#	167048
#	180158
#	191193
#	201995
#	216127
#	230091
#	241953
#	257672
#	276986
#	296257
#	311463
#	323025
#
# Disc length: 4491 seconds
#
# Revision: 1
# Processed by: cddbd v1.5.1PL0 Copyright (c) Steve Scherf et al.
# Submitted via: CDex 1.51
#
DISCID=46118917
DTITLE=Various Artist - Ceske Country 1977 - 1986
DYEAR=1900
DGENRE=Country
TTITLE0=Sundej z hodin zavazi (Michal Tucny a Fesaci)
TTITLE1=Jak jdem tim zdejsim svetem (Karel Zich)
TTITLE2=Pojd dal a zpivej (Pavel Bobek)
TTITLE3=Jen se priznej, ze ti schazim (Waldemar Matuska)
TTITLE4=Kdyz ji potkas (Petr Spaleny)
TTITLE5=Cadillac (Honza Vycital)
TTITLE6=V zadech tahnu stin (Karel Zich)
TTITLE7=Pani ma se ma (Tomas Linka a Fesaci)
TTITLE8=Hrac (Petr Spaleny)
TTITLE9=Rezavy sporny (Hoboes)
TTITLE10=Posledni kovboj (Michal Tucny)
TTITLE11=Pivni dzip (Honza Vycital)
TTITLE12=Kvete mak a slunce pali (Matuska, Blechova a KTO)
TTITLE13=Panenka (Poutnici)
TTITLE14=Na ceste (Wabi Danek)
TTITLE15=Inzenyrska (Plavci)
TTITLE16=Slecna sen (Urbankova a Cernoch)
TTITLE17=Chtel bych byt medvidkem (Tucny a Rytiz)
TTITLE18=Ten sen jsem mival (Mirek Hoffmann)
TTITLE19=Vsichni jsou uz v Mexiku (Michal Tucny)
TTITLE20=Usta do podkovy (Vit Tucny)
TTITLE21=Blues o touze latat (Poutnici)
TTITLE22=Maly dum nad skalou (Vera Martinova)
EXTD=
EXTT0=
EXTT1=
EXTT2=
EXTT3=
EXTT4=
EXTT5=
EXTT6=
EXTT7=
EXTT8=
EXTT9=
EXTT10=
EXTT11=
EXTT12=
EXTT13=
EXTT14=
EXTT15=
EXTT16=
EXTT17=
EXTT18=
EXTT19=
EXTT20=
EXTT21=
EXTT22=
PLAYORDER=
